<?xml version="1.0" encoding="utf-8"?>
<svg viewBox="18.6907 30.4714 296.7922 46.9517" width="296.7922" height="46.9517" xmlns="http://www.w3.org/2000/svg" xmlns:bx="https://boxy-svg.com">
  <defs>
    <linearGradient gradientUnits="userSpaceOnUse" x1="-199.457" y1="192.719" x2="-199.457" y2="403.674" id="gradient-1">
      <stop offset="0" style="stop-color: rgb(63.922% 66.275% 76.078%)"/>
      <stop offset="1" style="stop-color: rgb(36.053% 38.379% 47.26%)"/>
    </linearGradient>
    <linearGradient gradientUnits="userSpaceOnUse" x1="-199.116" y1="27.73" x2="-199.116" y2="161.641" id="gradient-2">
      <stop offset="0" style="stop-color: rgb(63.922% 66.275% 76.078%)"/>
      <stop offset="1" style="stop-color: rgb(36.053% 38.379% 47.26%)"/>
    </linearGradient>
    <linearGradient gradientUnits="userSpaceOnUse" x1="-199.539" y1="-89.925" x2="-199.539" y2="380.554" id="gradient-0">
      <stop offset="0" style="stop-color: rgb(56.471% 60.784% 79.216%)"/>
      <stop offset="1" style="stop-color: rgb(30.584% 35.312% 52.052%)"/>
    </linearGradient>
    <style bx:fonts="Lilita One">@import url(https://fonts.googleapis.com/css2?family=Lilita+One%3Aital%2Cwght%400%2C400&amp;display=swap);</style>
  </defs>
  <text style="fill: rgb(59, 148, 202); font-family: 'Lilita One'; font-size: 13.9px; white-space: pre;" x="55.485" y="173.346" transform="matrix(2.198498010635376, 0, 0, 2.194295883178711, -103.29299926757812, -309.94253540039057)">Small Shop Tem</text>
  <!-- <text fill="rgb(59, 148, 202)" font-family='Lilita One' font-size="13.9px" white-space="pre" x="55.485" y="173.346" transform="matrix(2.198498010635376, 0, 0, 2.194295883178711, -103.29299926757812, -309.94253540039057)">Small Shop Tem</text> -->
  <text style="white-space: pre; fill: rgb(51, 51, 51); font-family: Arial, sans-serif; font-size: 13.9px;" x="177.63" y="167.884" transform="matrix(2.198498010635376, 0, 0, 2.194295883178711, -103.29299926757812, -309.94253540039057)"> </text>
  <g transform="matrix(0.0528390035033226, 0, 0, 0.08129001408815384, 279.11456298828125, 39.51806640625)" style="">
    <g id="XMLID_1_">
      <path d="M -1047.27 228.716 C -1052.923 223.157 -1058.091 217.157 -1062.572 210.637 C -1063.904 208.678 -1073.432 194.039 -1071.696 192.999 C -1071.777 193.079 -1069.96 195.638 -1069.596 196.078 C -1069.637 195.919 -1070.081 195.278 -1071.131 193.799 C -1054.497 216.877 -1030.677 234.676 -1006.454 249.155 C -945.127 285.752 -874.878 307.59 -805.921 325.149 C -734.38 343.387 -661.547 356.107 -588.392 365.866 C -441.434 385.545 -292.418 392.344 -144.209 389.585 C 2.951 386.864 150.312 375.705 295.21 349.307 C 367.034 336.188 438.696 319.43 507.451 294.752 C 540.234 282.992 572.613 269.353 602.731 251.874 C 629.983 236.036 653.197 217.157 672.9 192.719 C 673.747 195.639 668.539 202.478 667.086 204.958 C 664.825 208.718 662.362 212.318 659.698 215.757 C 654.328 222.757 648.111 229.037 641.489 234.875 C 627.48 247.115 611.896 257.514 595.666 266.714 C 533.976 301.751 464.414 323.109 395.78 340.268 C 324.037 358.187 251.042 370.825 177.725 380.345 C 30.485 399.424 -118.774 406.183 -267.225 402.864 C -414.102 399.543 -561.503 387.585 -705.836 359.827 C -776.974 346.148 -848.03 328.949 -915.776 303.191 C -947.873 290.992 -979.646 276.833 -1008.674 258.474 C -1022.361 249.794 -1035.724 240.115 -1047.27 228.716 Z" style="fill: url('#gradient-1');"/>
      <path d="M -371.347 32.93 C -223.299 24.211 -73.798 26.251 73.846 40.61 C 147.082 47.69 220.319 57.609 292.061 74.087 C 326.822 82.087 361.503 91.686 394.528 105.165 C 409.991 111.485 425.292 118.805 439.099 128.164 C 450.888 136.163 463.485 147.322 466.836 161.641 C 466.675 160.962 460.094 153.362 459.488 152.802 C 459.609 153.042 461.265 155.081 465.827 160.481 C 451.615 144.202 432.963 132.883 413.463 123.764 C 382.052 109.165 348.745 99.086 315.155 90.607 C 279.788 81.688 243.937 74.648 207.884 68.808 C 135.172 57.049 61.733 49.77 -11.785 45.29 C -160.56 36.21 -310.626 37.371 -459.118 50.57 C -531.708 57.049 -604.339 66.288 -675.637 81.407 C -710.843 88.887 -745.968 97.845 -779.881 110.005 C -810.443 120.964 -843.145 134.963 -865.068 159.681 C -863.049 147.362 -849.605 136.323 -839.955 129.563 C -827.804 121.084 -814.48 114.204 -800.874 108.284 C -735.107 79.687 -662.032 66.208 -591.46 55.249 C -518.546 43.97 -444.987 37.251 -371.347 32.93 Z" style="fill: url('#gradient-2');"/>
      <path d="M -627.594 78.447 C -482.655 52.61 -334.446 45.369 -187.408 45.369 L -185.914 45.369 C -122.609 45.369 -59.264 47.889 3.88 52.21 C 78.085 57.288 152.209 65.208 225.487 78.047 C 261.419 84.367 297.189 92.006 332.354 101.765 C 365.661 111.006 399.776 122.045 429.653 139.723 C 442.531 147.362 455.774 156.922 463.041 170.321 C 465.261 174.4 466.593 177.44 464.454 181.8 C 462.879 185.039 460.901 188.079 458.68 190.919 C 454.159 196.719 448.587 201.519 442.693 205.878 C 415.441 225.996 381.326 237.635 349.149 247.435 C 279.303 268.673 206.431 280.592 134.041 289.472 C -14.168 307.59 -164.354 312.03 -313.492 306.47 C -387.496 303.71 -461.379 298.31 -534.817 289.231 C -606.963 280.353 -679.312 268.273 -748.915 247.155 C -781.011 237.395 -815.691 225.716 -842.58 205.198 C -849.12 200.239 -855.338 194.438 -859.98 187.64 C -862.039 184.559 -863.816 181.2 -865.027 177.72 C -866.117 174.64 -863.331 170.961 -861.797 168.441 C -854.167 155.802 -841.692 147.083 -829.176 139.643 C -799.663 122.084 -765.992 111.284 -733.048 102.006 C -698.408 92.206 -663.041 84.767 -627.594 78.447 Z" style="fill-rule: nonzero; fill: rgb(205, 208, 221);"/>
      <path d="M 521.339 35.131 C 522.147 34.49 520.895 34.531 520.29 34.531 C 520.29 34.451 520.128 34.451 519.805 34.571 C 519.886 34.611 521.057 35.37 521.339 35.131 Z M -202.225 22.691 C -296.051 22.772 -389.918 26.212 -483.301 35.611 C -556.255 42.93 -629.128 53.009 -700.508 69.888 C -734.743 77.967 -768.899 87.647 -801.359 101.325 C -816.661 107.765 -831.558 115.404 -845.123 125.004 C -857.437 133.724 -870.074 145.163 -873.465 160.401 C -880.813 193.359 -842.378 215.717 -817.589 227.917 C -785.977 243.395 -751.942 253.754 -717.908 262.473 C -646.73 280.672 -573.656 291.432 -500.621 299.231 C -353.381 315.029 -204.283 317.79 -56.397 311.071 C 17.284 307.71 90.924 301.711 163.999 291.711 C 235.822 281.912 308.292 269.073 376.844 245.195 C 407.125 234.635 440.755 221.276 462.839 197.239 C 473.336 185.879 478.423 171.28 473.457 156.162 C 468.814 142.203 456.097 131.843 444.348 123.644 C 416.531 104.165 382.739 92.526 350.36 82.847 C 315.518 72.408 279.95 64.488 244.179 57.809 C 171.346 44.25 97.505 35.891 23.622 30.371 C -48.242 25.051 -120.429 22.012 -192.535 22.612 C -189.749 22.571 -188.134 22.532 -187.448 22.532 C -189.951 22.532 -202.225 22.612 -202.225 22.691 Z M -185.874 380.465 C -311.757 381.425 -438.164 374.666 -563.037 359.026 C -636.355 349.827 -709.349 337.828 -781.213 320.63 C -849.968 304.15 -919.086 283.552 -981.907 250.754 C -1030.839 225.196 -1104.722 173.08 -1066.973 110.084 C -1050.46 82.486 -1023.814 63.689 -996.32 47.769 C -966.847 30.691 -935.235 17.452 -903.22 5.852 C -835.232 -18.785 -764.378 -35.305 -693.361 -48.584 C -621.336 -62.022 -548.423 -71.462 -475.429 -77.781 C -327.38 -90.66 -178.606 -93.421 -30.195 -85.46 C 116.277 -77.581 263.881 -60.782 406.075 -24.025 C 473.498 -6.626 542.575 14.812 602.489 50.849 C 629.66 67.209 657.759 87.607 671.527 116.965 C 678.673 132.164 680.53 148.362 675.161 164.401 C 670.315 178.96 661.595 191.839 650.936 202.838 C 627.884 226.676 597.927 243.634 568.253 258.034 C 536.722 273.312 503.777 285.472 470.429 296.152 C 400.18 318.59 327.71 334.068 254.958 345.987 C 110.1 369.705 -37.059 379.665 -183.734 380.465 C -184.097 380.465 -184.783 380.465 -185.752 380.465 C -185.793 380.465 -185.833 380.465 -185.874 380.465 Z" style="fill: url('#gradient-0');"/>
      <path d="M 520.29 34.531 C 520.895 34.531 522.147 34.49 521.339 35.131 C 521.057 35.37 519.886 34.611 519.805 34.571 C 519.967 34.65 520.129 34.611 520.209 34.571 C 520.249 34.571 520.249 34.571 520.249 34.571 L 520.29 34.531 Z" style=""/>
      <path d="M 520.29 34.531 L 520.249 34.571 C 520.249 34.571 520.249 34.571 520.209 34.571 C 520.007 34.571 519.886 34.571 519.805 34.571 C 520.128 34.451 520.29 34.451 520.29 34.531 Z" style=""/>
      <path d="M 520.209 34.571 C 520.128 34.611 519.967 34.65 519.805 34.571 C 519.886 34.571 520.007 34.571 520.209 34.571 Z" style=""/>
      <path d="M 459.488 152.802 C 460.094 153.362 466.675 160.962 466.836 161.641 C 466.675 161.441 466.513 161.241 466.351 161.081 C 466.19 160.881 465.988 160.681 465.827 160.481 C 461.265 155.081 459.609 153.042 459.488 152.802 Z" style=""/>
      <path d="M -185.752 380.465 C -184.783 380.465 -184.097 380.465 -183.734 380.465 C -184.703 380.465 -187.044 380.504 -189.426 380.504 C -188.377 380.465 -187.206 380.465 -185.873 380.465 C -185.833 380.465 -185.793 380.465 -185.752 380.465 Z" style=""/>
      <path d="M -199.6 22.691 C -200.488 22.691 -201.336 22.691 -202.225 22.691 C -202.225 22.612 -189.951 22.532 -187.448 22.532 C -188.134 22.532 -189.749 22.571 -192.535 22.612 C -193.181 22.612 -193.787 22.612 -194.433 22.651 C -195.886 22.651 -197.622 22.651 -199.6 22.691 Z" style=""/>
      <path d="M -231.495 413.102 C -235.249 412.343 -210.178 413.102 -231.495 413.102 Z" style=""/>
      <path d="M 73.846 40.61 C -73.798 26.251 -223.299 24.211 -371.347 32.93 C -444.987 37.251 -518.546 43.97 -591.46 55.249 C -662.032 66.208 -735.107 79.687 -800.874 108.284 C -814.48 114.204 -827.803 121.084 -839.955 129.563 C -849.605 136.323 -863.049 147.362 -865.068 159.681 C -843.145 134.963 -810.443 120.964 -779.881 110.005 C -745.967 97.845 -710.843 88.887 -675.637 81.407 C -604.339 66.288 -531.708 57.049 -459.118 50.57 C -310.626 37.371 -160.56 36.21 -11.785 45.29 C 61.734 49.77 135.172 57.049 207.884 68.808 C 243.937 74.648 279.788 81.688 315.155 90.607 C 348.745 99.086 382.052 109.165 413.463 123.764 C 432.963 132.883 451.615 144.202 465.827 160.481 C 465.988 160.681 466.19 160.881 466.351 161.081 C 466.513 161.241 466.675 161.441 466.836 161.641 C 463.485 147.322 450.889 136.163 439.1 128.163 C 425.292 118.805 409.991 111.485 394.528 105.165 C 361.503 91.686 326.822 82.087 292.061 74.087 C 220.319 57.609 147.083 47.69 73.846 40.61 Z M -483.301 35.611 C -389.918 26.212 -296.051 22.772 -202.225 22.691 C -201.336 22.691 -200.488 22.691 -199.6 22.691 C -197.622 22.651 -195.886 22.651 -194.433 22.651 C -193.787 22.612 -193.181 22.612 -192.535 22.612 C -120.429 22.012 -48.242 25.051 23.622 30.371 C 97.505 35.891 171.346 44.25 244.179 57.809 C 279.949 64.488 315.518 72.408 350.36 82.847 C 382.739 92.526 416.531 104.165 444.348 123.644 C 456.097 131.843 468.814 142.203 473.457 156.162 C 478.423 171.28 473.336 185.879 462.839 197.239 C 440.755 221.276 407.125 234.636 376.844 245.195 C 308.292 269.073 235.822 281.912 163.998 291.711 C 90.924 301.711 17.283 307.71 -56.397 311.071 C -204.284 317.79 -353.381 315.029 -500.621 299.231 C -573.656 291.432 -646.73 280.672 -717.908 262.473 C -751.943 253.754 -785.977 243.395 -817.589 227.917 C -842.378 215.717 -880.813 193.359 -873.465 160.401 C -870.074 145.163 -857.437 133.724 -845.123 125.004 C -831.558 115.404 -816.661 107.765 -801.359 101.325 C -768.899 87.647 -734.743 77.967 -700.508 69.888 C -629.128 53.009 -556.255 42.93 -483.301 35.611 Z M -313.492 306.47 C -164.354 312.03 -14.168 307.59 134.041 289.472 C 206.431 280.592 279.303 268.673 349.149 247.435 C 381.326 237.635 415.441 225.996 442.693 205.878 C 448.587 201.519 454.159 196.719 458.68 190.919 C 460.901 188.079 462.879 185.039 464.454 181.8 C 466.593 177.44 465.261 174.4 463.041 170.321 C 455.774 156.922 442.531 147.362 429.653 139.723 C 399.776 122.045 365.661 111.006 332.354 101.765 C 297.189 92.006 261.419 84.367 225.487 78.047 C 152.209 65.208 78.085 57.288 3.88 52.21 C -59.264 47.89 -122.609 45.369 -185.914 45.369 L -187.408 45.369 C -334.446 45.369 -482.655 52.61 -627.594 78.447 C -663.041 84.767 -698.408 92.206 -733.048 102.006 C -765.992 111.284 -799.663 122.084 -829.176 139.643 C -841.692 147.083 -854.167 155.802 -861.797 168.441 C -863.331 170.961 -866.117 174.64 -865.027 177.72 C -863.816 181.2 -862.039 184.559 -859.98 187.64 C -855.338 194.438 -849.12 200.239 -842.58 205.198 C -815.691 225.716 -781.011 237.395 -748.915 247.155 C -679.312 268.273 -606.963 280.353 -534.817 289.231 C -461.379 298.311 -387.496 303.71 -313.492 306.47 Z" style=""/>
      <path d="M -1071.131 193.799 C -1070.081 195.278 -1069.637 195.919 -1069.596 196.078 C -1069.96 195.638 -1071.777 193.079 -1071.696 192.999 C -1071.495 193.279 -1071.293 193.558 -1071.131 193.799 Z" style=""/>
      <path d="M -977.748 287.752 C -1007.342 272.953 -1036.208 255.314 -1059.019 231.156 C -1069.798 219.757 -1079.125 206.718 -1083.97 191.719 C -1089.057 175.881 -1087.603 157.682 -1087.24 141.243 C -1086.594 109.526 -1063.177 83.487 -1039.64 64.488 C -1013.68 43.569 -983.844 27.891 -953.363 14.492 C -920.661 0.133 -886.788 -11.546 -852.552 -21.665 C -712.377 -63.143 -565.904 -81.141 -420.481 -91.94 C -273.725 -102.819 -126.283 -101.539 20.513 -91.94 C 93.629 -87.141 166.865 -79.702 239.213 -68.022 C 311.804 -56.303 383.869 -42.263 454.401 -21.425 C 488.355 -11.346 521.905 0.293 554.364 14.532 C 585.452 28.171 615.812 44.169 642.054 65.768 C 666.884 86.166 687.959 112.164 688.281 145.402 C 688.322 149.602 688.08 153.802 687.434 157.962 C 687.192 159.801 684.405 166.521 685.294 168.001 C 686.102 169.32 687.192 168.081 686.828 170.12 C 686.465 172.16 686.546 174.28 686.949 176.321 C 687.716 179.92 685.456 185.479 684.729 189.079 C 681.458 205.078 671.769 218.197 660.828 230.075 C 638.663 254.114 610.362 271.713 581.253 286.391 C 549.802 302.271 516.858 314.99 483.389 325.949 C 414.392 348.508 343.295 364.106 271.713 376.345 C 198.881 388.784 125.483 397.063 51.843 403.303 C 15.426 406.343 -21.111 408.583 -57.609 410.063 C -75.695 410.743 -93.823 411.343 -111.951 411.822 C -130.119 412.342 -148.407 411.942 -166.535 412.742 C -188.054 413.702 -209.896 413.102 -231.495 413.102 C -210.178 413.102 -235.249 412.342 -231.495 413.102 C -239.287 411.502 -248.249 412.702 -256.163 412.582 C -265.812 412.422 -275.461 412.222 -285.11 411.942 C -303.682 411.423 -322.253 410.942 -340.825 410.102 C -377.362 408.423 -413.9 406.223 -450.356 403.303 C -523.108 397.503 -595.78 389.264 -667.725 376.904 C -739.75 364.546 -811.493 349.227 -880.975 326.469 C -914 315.67 -946.661 303.311 -977.748 287.752 Z M -1066.973 110.084 C -1104.721 173.08 -1030.839 225.196 -981.907 250.754 C -919.086 283.553 -849.968 304.15 -781.213 320.63 C -709.349 337.828 -636.355 349.827 -563.037 359.026 C -438.164 374.666 -311.757 381.425 -185.873 380.465 C -187.206 380.465 -188.377 380.465 -189.426 380.504 C -187.044 380.504 -184.703 380.465 -183.734 380.465 C -37.058 379.665 110.101 369.705 254.958 345.988 C 327.71 334.068 400.18 318.59 470.429 296.152 C 503.777 285.472 536.722 273.313 568.253 258.034 C 597.927 243.635 627.884 226.676 650.936 202.838 C 661.595 191.84 670.315 178.96 675.161 164.402 C 680.53 148.362 678.673 132.164 671.527 116.965 C 657.759 87.607 629.66 67.209 602.489 50.849 C 542.575 14.812 473.498 -6.626 406.075 -24.025 C 263.881 -60.782 116.277 -77.581 -30.195 -85.46 C -178.606 -93.421 -327.38 -90.66 -475.429 -77.781 C -548.423 -71.462 -621.336 -62.022 -693.361 -48.584 C -764.378 -35.305 -835.232 -18.785 -903.22 5.852 C -935.235 17.452 -966.847 30.692 -996.32 47.769 C -1023.814 63.689 -1050.46 82.487 -1066.973 110.084 Z M -1062.572 210.637 C -1058.091 217.157 -1052.923 223.157 -1047.27 228.716 C -1035.724 240.115 -1022.361 249.794 -1008.674 258.474 C -979.646 276.833 -947.872 290.992 -915.776 303.19 C -848.03 328.949 -776.974 346.147 -705.836 359.827 C -561.503 387.585 -414.102 399.543 -267.225 402.863 C -118.774 406.183 30.485 399.423 177.725 380.344 C 251.043 370.825 324.037 358.187 395.78 340.268 C 464.414 323.109 533.976 301.75 595.666 266.713 C 611.896 257.513 627.48 247.115 641.489 234.875 C 648.111 229.036 654.328 222.757 659.698 215.756 C 662.362 212.318 664.825 208.718 667.086 204.958 C 668.539 202.478 673.747 195.638 672.9 192.719 C 653.197 217.157 629.983 236.036 602.731 251.874 C 572.613 269.353 540.234 282.992 507.451 294.751 C 438.696 319.43 367.034 336.188 295.21 349.307 C 150.312 375.705 2.951 386.864 -144.209 389.584 C -292.418 392.344 -441.434 385.545 -588.392 365.865 C -661.547 356.107 -734.38 343.387 -805.921 325.149 C -874.878 307.59 -945.127 285.752 -1006.454 249.154 C -1030.677 234.676 -1054.497 216.877 -1071.131 193.799 C -1071.293 193.558 -1071.495 193.279 -1071.696 192.999 C -1073.432 194.039 -1063.904 208.678 -1062.572 210.637 Z" style=""/>
      <text style="fill: rgb(255, 255, 255); font-family: 'Lilita One'; font-size: 28px; white-space: pre;" transform="matrix(12.156133, 0, 0, 8.254113, -568.881287, 251.788925)">Plate</text>
    </g>
  </g>
</svg>